<svg width="29" height="50" viewBox="0 0 29 50" fill="none" xmlns="http://www.w3.org/2000/svg">
<path d="M0.988142 49.0119C0.329381 48.3531 0 47.5731 0 46.6719C0 45.7707 0.329381 44.9917 0.988142 44.3347L20.2899 25.0329L0.922266 5.66535C0.307422 5.05051 0 4.28195 0 3.35968C0 2.43742 0.329381 1.6469 0.988142 0.988142C1.6469 0.329381 2.42688 0 3.32806 0C4.22925 0 5.00834 0.329381 5.66535 0.988142L27.7997 23.1884C28.0632 23.4519 28.2503 23.7374 28.361 24.0448C28.4717 24.3522 28.5261 24.6816 28.5244 25.0329C28.5244 25.3843 28.469 25.7137 28.3584 26.0211C28.2477 26.3285 28.0615 26.614 27.7997 26.8775L5.59947 49.0777C4.98463 49.6926 4.22661 50 3.32543 50C2.42424 50 1.64515 49.6706 0.988142 49.0119Z" fill="#FFF6DD"/>
</svg>
