<svg width="31" height="31" viewBox="0 0 31 31" fill="none" xmlns="http://www.w3.org/2000/svg">
<path d="M14.209 5.16675H5.16732C4.48218 5.16675 3.82509 5.43892 3.34063 5.92339C2.85616 6.40786 2.58398 7.06494 2.58398 7.75008V25.8334C2.58398 26.5186 2.85616 27.1756 3.34063 27.6601C3.82509 28.1446 4.48218 28.4167 5.16732 28.4167H23.2507C23.9358 28.4167 24.5929 28.1446 25.0773 27.6601C25.5618 27.1756 25.834 26.5186 25.834 25.8334V16.7917" stroke="#A86C38" stroke-width="3" stroke-linecap="round" stroke-linejoin="round"/>
<path d="M23.8965 3.22905C24.4103 2.7152 25.1073 2.42651 25.834 2.42651C26.5607 2.42651 27.2576 2.7152 27.7715 3.22905C28.2853 3.74291 28.574 4.43985 28.574 5.16655C28.574 5.89326 28.2853 6.5902 27.7715 7.10405L15.5007 19.3749L10.334 20.6666L11.6257 15.4999L23.8965 3.22905Z" stroke="#A86C38" stroke-width="3" stroke-linecap="round" stroke-linejoin="round"/>
</svg>
