<svg width="24" height="24" viewBox="0 0 24 24" fill="none" xmlns="http://www.w3.org/2000/svg">
<path d="M1 6.5V3.75C1 3.02065 1.28973 2.32118 1.80546 1.80546C2.32118 1.28973 3.02065 1 3.75 1H6.5M1 17.5V20.25C1 20.9793 1.28973 21.6788 1.80546 22.1945C2.32118 22.7103 3.02065 23 3.75 23H6.5M17.5 1H20.25C20.9793 1 21.6788 1.28973 22.1945 1.80546C22.7103 2.32118 23 3.02065 23 3.75V6.5M17.5 23H20.25C20.9793 23 21.6788 22.7103 22.1945 22.1945C22.7103 21.6788 23 20.9793 23 20.25V17.5M7.875 9.25H7.88875M16.125 9.25H16.1388M8.5625 16.125C9.01058 16.5823 9.54542 16.9456 10.1357 17.1937C10.7259 17.4417 11.3597 17.5695 12 17.5695C12.6403 17.5695 13.2741 17.4417 13.8643 17.1937C14.4546 16.9456 14.9894 16.5823 15.4375 16.125" stroke="#94623D" stroke-width="2" stroke-linecap="round" stroke-linejoin="round"/>
</svg>
