<svg width="71" height="67" viewBox="0 0 71 67" fill="none" xmlns="http://www.w3.org/2000/svg">
<path d="M2 23.0194C5.05041 9.42098 12.1317 -12.5119 19.322 23.0194C24.4557 48.388 29.524 34.2413 31.4146 19.7294C33.1577 6.35039 38.278 -12.3803 44.8146 19.7294C51.3512 51.8392 57.8878 30.2572 60.1756 15.4525C61.3393 7.92187 66.0585 -0.960937 69 15.4525" stroke="#D7965E" stroke-width="3"/>
<path d="M25.704 63.144C24.3707 63.144 23.3307 62.8453 22.584 62.248C21.8373 61.6507 21.4107 60.776 21.304 59.624L23.256 59.336C23.448 60.7013 24.296 61.384 25.8 61.384C26.4507 61.384 26.9573 61.256 27.32 61C27.6827 60.7333 27.864 60.3653 27.864 59.896C27.864 59.4693 27.6827 59.1493 27.32 58.936C26.9573 58.712 26.376 58.504 25.576 58.312C24.8293 58.1307 24.1893 57.9173 23.656 57.672C23.1227 57.416 22.712 57.0747 22.424 56.648C22.1467 56.2213 22.008 55.656 22.008 54.952C22.008 54.28 22.1787 53.6827 22.52 53.16C22.872 52.6373 23.352 52.2267 23.96 51.928C24.568 51.6293 25.272 51.48 26.072 51.48C27.128 51.48 27.992 51.7573 28.664 52.312C29.336 52.8667 29.7307 53.6293 29.848 54.6L28.024 54.904C27.8 53.7947 27.1173 53.24 25.976 53.24C25.4213 53.24 24.968 53.384 24.616 53.672C24.2747 53.96 24.104 54.3387 24.104 54.808C24.104 55.2773 24.2747 55.64 24.616 55.896C24.9573 56.1413 25.5387 56.36 26.36 56.552C27.096 56.7227 27.7307 56.9253 28.264 57.16C28.7973 57.384 29.208 57.6987 29.496 58.104C29.7947 58.5093 29.944 59.064 29.944 59.768C29.944 60.4293 29.7627 61.016 29.4 61.528C29.048 62.0293 28.552 62.424 27.912 62.712C27.2827 63 26.5467 63.144 25.704 63.144ZM35.207 54.792C36.4123 54.792 37.3563 55.1547 38.039 55.88C38.7323 56.5947 39.079 57.5653 39.079 58.792C39.079 59.624 38.903 60.3707 38.551 61.032C38.2097 61.6827 37.7243 62.2 37.095 62.584C36.4657 62.9573 35.735 63.144 34.903 63.144C33.6977 63.144 32.7483 62.7867 32.055 62.072C31.3723 61.3573 31.031 60.3813 31.031 59.144C31.031 58.312 31.2017 57.5707 31.543 56.92C31.895 56.2587 32.3803 55.7413 32.999 55.368C33.6283 54.984 34.3643 54.792 35.207 54.792ZM34.967 61.432C35.5963 61.432 36.103 61.192 36.487 60.712C36.871 60.232 37.063 59.592 37.063 58.792C37.063 58.0667 36.8923 57.5067 36.551 57.112C36.2203 56.7173 35.7617 56.52 35.175 56.52C34.5243 56.52 34.007 56.76 33.623 57.24C33.239 57.72 33.047 58.3547 33.047 59.144C33.047 59.8693 33.2123 60.4347 33.543 60.84C33.8843 61.2347 34.359 61.432 34.967 61.432ZM41.1744 63V56.552H39.6384V54.92H41.1744V54.488C41.1744 53.7733 41.3184 53.16 41.6064 52.648C41.905 52.1253 42.305 51.72 42.8064 51.432C43.3184 51.144 43.905 51 44.5664 51C45.3557 51 45.985 51.1973 46.4544 51.592C46.9344 51.976 47.2224 52.5573 47.3184 53.336L45.6544 53.528C45.6224 53.2507 45.505 53.0373 45.3024 52.888C45.0997 52.728 44.8384 52.648 44.5184 52.648C44.081 52.648 43.7344 52.792 43.4784 53.08C43.233 53.368 43.1104 53.7787 43.1104 54.312V54.92H45.5104V56.552H43.1424V63H41.1744ZM50.1515 63.144C49.1808 63.144 48.4235 62.8773 47.8795 62.344C47.3462 61.8107 47.0848 61.112 47.0955 60.248L47.1595 56.552H45.7835V54.92H47.1915L47.2075 53.256H49.1595L49.1275 54.92H51.7675V56.552H49.1115L49.0635 60.04C49.0528 60.4773 49.1595 60.824 49.3835 61.08C49.6182 61.3253 49.9648 61.448 50.4235 61.448C50.6688 61.448 50.8982 61.416 51.1115 61.352C51.3248 61.288 51.5488 61.1707 51.7835 61L52.3595 62.504C52.1142 62.7173 51.7995 62.8773 51.4155 62.984C51.0315 63.0907 50.6102 63.144 50.1515 63.144Z" fill="#D7965E"/>
</svg>
