<svg width="81" height="71" viewBox="0 0 81 71" fill="none" xmlns="http://www.w3.org/2000/svg">
<path d="M1 23.0991C4.05028 21.3424 11.8067 19.6735 18.4302 27.0517C26.7095 36.2745 27.1453 -8.08264 36.2961 27.0517C43.6168 55.1592 46.8994 34.3713 47.6257 20.464C47.9162 10.9485 50.1531 -2.37332 56.7765 20.464C63.4 43.3013 67.0894 25.5878 68.1061 13.8763C68.5419 5.5319 71.3307 -6.67728 79 11.2412" stroke="#D7965E" stroke-width="3"/>
<path d="M34.728 55.64H36.712L33.416 67H31.048L28.984 58.328L26.52 67H24.136L21.32 55.64H23.416L25.464 64.328L27.896 55.64H30.312L32.344 64.28L34.728 55.64ZM44.6701 58.952V67H42.6861L42.7501 65.592C42.4621 66.0827 42.0835 66.4667 41.6141 66.744C41.1555 67.0107 40.6275 67.144 40.0301 67.144C39.3261 67.144 38.7288 66.984 38.2381 66.664C37.7475 66.3333 37.3741 65.88 37.1181 65.304C36.8621 64.728 36.7341 64.0667 36.7341 63.32C36.7341 62.424 36.9101 61.64 37.2621 60.968C37.6141 60.2853 38.0941 59.752 38.7021 59.368C39.3208 58.984 40.0141 58.792 40.7821 58.792C41.2941 58.792 41.7475 58.904 42.1421 59.128C42.5368 59.3413 42.8408 59.6293 43.0541 59.992L43.2461 58.952H44.6701ZM40.9261 60.52C40.2648 60.52 39.7368 60.7707 39.3421 61.272C38.9475 61.7733 38.7501 62.4293 38.7501 63.24C38.7501 63.9333 38.8995 64.472 39.1981 64.856C39.4968 65.24 39.9075 65.432 40.4301 65.432C40.8568 65.432 41.2408 65.3093 41.5821 65.064C41.9341 64.8187 42.2115 64.4773 42.4141 64.04C42.6168 63.6027 42.7181 63.1013 42.7181 62.536C42.7181 61.9067 42.5581 61.416 42.2381 61.064C41.9181 60.7013 41.4808 60.52 40.9261 60.52ZM52.3271 58.92H54.2791L51.2551 67H48.4711L45.9111 58.92H48.0231L49.9751 65.416L52.3271 58.92ZM58.7554 67.144C57.8807 67.144 57.1234 66.984 56.4834 66.664C55.854 66.3333 55.3687 65.864 55.0274 65.256C54.686 64.648 54.5154 63.9227 54.5154 63.08C54.5154 62.2373 54.6914 61.496 55.0434 60.856C55.3954 60.2053 55.87 59.6987 56.4674 59.336C57.0754 58.9733 57.7634 58.792 58.5314 58.792C59.7794 58.792 60.6967 59.2187 61.2834 60.072C61.8807 60.9147 62.0887 62.0827 61.9074 63.576H56.4994C56.542 64.1413 56.7714 64.5947 57.1874 64.936C57.6034 65.2773 58.174 65.448 58.8994 65.448C59.2407 65.448 59.582 65.3733 59.9234 65.224C60.2754 65.0747 60.574 64.8453 60.8194 64.536L61.9554 65.688C61.5927 66.1467 61.15 66.504 60.6274 66.76C60.1154 67.016 59.4914 67.144 58.7554 67.144ZM58.5634 60.264C58.0194 60.264 57.5714 60.4347 57.2194 60.776C56.8674 61.1173 56.6434 61.576 56.5474 62.152H60.2274C60.2487 61.4907 60.1047 61.0107 59.7954 60.712C59.486 60.4133 59.0754 60.264 58.5634 60.264Z" fill="#D7965E"/>
</svg>
