<svg width="69" height="67" viewBox="0 0 69 67" fill="none" xmlns="http://www.w3.org/2000/svg">
<path d="M2 38.5H15.5V26H24V11.5H33V2H46.5V29.5H59.5V38.5H67.5" stroke="#D7965E" stroke-width="3" stroke-linecap="round"/>
<path d="M20.704 63.144C19.3707 63.144 18.3307 62.8453 17.584 62.248C16.8373 61.6507 16.4107 60.776 16.304 59.624L18.256 59.336C18.448 60.7013 19.296 61.384 20.8 61.384C21.4507 61.384 21.9573 61.256 22.32 61C22.6827 60.7333 22.864 60.3653 22.864 59.896C22.864 59.4693 22.6827 59.1493 22.32 58.936C21.9573 58.712 21.376 58.504 20.576 58.312C19.8293 58.1307 19.1893 57.9173 18.656 57.672C18.1227 57.416 17.712 57.0747 17.424 56.648C17.1467 56.2213 17.008 55.656 17.008 54.952C17.008 54.28 17.1787 53.6827 17.52 53.16C17.872 52.6373 18.352 52.2267 18.96 51.928C19.568 51.6293 20.272 51.48 21.072 51.48C22.128 51.48 22.992 51.7573 23.664 52.312C24.336 52.8667 24.7307 53.6293 24.848 54.6L23.024 54.904C22.8 53.7947 22.1173 53.24 20.976 53.24C20.4213 53.24 19.968 53.384 19.616 53.672C19.2747 53.96 19.104 54.3387 19.104 54.808C19.104 55.2773 19.2747 55.64 19.616 55.896C19.9573 56.1413 20.5387 56.36 21.36 56.552C22.096 56.7227 22.7307 56.9253 23.264 57.16C23.7973 57.384 24.208 57.6987 24.496 58.104C24.7947 58.5093 24.944 59.064 24.944 59.768C24.944 60.4293 24.7627 61.016 24.4 61.528C24.048 62.0293 23.552 62.424 22.912 62.712C22.2827 63 21.5467 63.144 20.704 63.144ZM29.5265 63.144C28.5558 63.144 27.7985 62.8773 27.2545 62.344C26.7212 61.8107 26.4598 61.112 26.4705 60.248L26.5345 56.552H25.1585V54.92H26.5665L26.5825 53.256H28.5345L28.5025 54.92H31.1425V56.552H28.4865L28.4385 60.04C28.4278 60.4773 28.5345 60.824 28.7585 61.08C28.9932 61.3253 29.3398 61.448 29.7985 61.448C30.0438 61.448 30.2732 61.416 30.4865 61.352C30.6998 61.288 30.9238 61.1707 31.1585 61L31.7345 62.504C31.4892 62.7173 31.1745 62.8773 30.7905 62.984C30.4065 63.0907 29.9852 63.144 29.5265 63.144ZM36.2866 63.144C35.412 63.144 34.6546 62.984 34.0146 62.664C33.3853 62.3333 32.9 61.864 32.5586 61.256C32.2173 60.648 32.0466 59.9227 32.0466 59.08C32.0466 58.2373 32.2226 57.496 32.5746 56.856C32.9266 56.2053 33.4013 55.6987 33.9986 55.336C34.6066 54.9733 35.2946 54.792 36.0626 54.792C37.3106 54.792 38.228 55.2187 38.8146 56.072C39.412 56.9147 39.62 58.0827 39.4386 59.576H34.0306C34.0733 60.1413 34.3026 60.5947 34.7186 60.936C35.1346 61.2773 35.7053 61.448 36.4306 61.448C36.772 61.448 37.1133 61.3733 37.4546 61.224C37.8066 61.0747 38.1053 60.8453 38.3506 60.536L39.4866 61.688C39.124 62.1467 38.6813 62.504 38.1586 62.76C37.6466 63.016 37.0226 63.144 36.2866 63.144ZM36.0946 56.264C35.5506 56.264 35.1026 56.4347 34.7506 56.776C34.3986 57.1173 34.1746 57.576 34.0786 58.152H37.7586C37.78 57.4907 37.636 57.0107 37.3266 56.712C37.0173 56.4133 36.6066 56.264 36.0946 56.264ZM41.1181 66.2V54.92H43.0861L43.0221 56.36C43.3101 55.8587 43.6835 55.4747 44.1421 55.208C44.6008 54.9307 45.1341 54.792 45.7421 54.792C46.4568 54.792 47.0595 54.9573 47.5501 55.288C48.0408 55.6187 48.4141 56.072 48.6701 56.648C48.9261 57.224 49.0541 57.88 49.0541 58.616C49.0541 59.512 48.8781 60.3013 48.5261 60.984C48.1741 61.6667 47.6888 62.2 47.0701 62.584C46.4621 62.9573 45.7688 63.144 44.9901 63.144C44.5848 63.144 44.2168 63.0747 43.8861 62.936C43.5555 62.7973 43.2781 62.6107 43.0541 62.376L43.0701 63V66.2H41.1181ZM44.8461 61.432C45.5181 61.432 46.0515 61.176 46.4461 60.664C46.8408 60.152 47.0381 59.4907 47.0381 58.68C47.0381 57.9973 46.8888 57.4693 46.5901 57.096C46.2915 56.712 45.8808 56.52 45.3581 56.52C44.9208 56.52 44.5315 56.6427 44.1901 56.888C43.8488 57.1227 43.5768 57.4587 43.3741 57.896C43.1715 58.3227 43.0701 58.8187 43.0701 59.384C43.0701 60.0133 43.2301 60.5147 43.5501 60.888C43.8701 61.2507 44.3021 61.432 44.8461 61.432Z" fill="#D7965E"/>
</svg>
