<svg width="347" height="236" viewBox="0 0 347 236" fill="none" xmlns="http://www.w3.org/2000/svg">
<rect width="347" height="236" rx="42" fill="white"/>
<line x1="61" y1="62.5" x2="347" y2="62.5" stroke="#623A17" stroke-opacity="0.22"/>
<line x1="61" y1="89.5" x2="347" y2="89.5" stroke="#623A17" stroke-opacity="0.22"/>
<line x1="61" y1="116.5" x2="347" y2="116.5" stroke="#623A17" stroke-opacity="0.22"/>
<line x1="61" y1="142.5" x2="347" y2="142.5" stroke="#623A17" stroke-opacity="0.22"/>
<line x1="61" y1="170.5" x2="347" y2="170.5" stroke="#623A17" stroke-opacity="0.22"/>
<line x1="61" y1="196.5" x2="347" y2="196.5" stroke="#623A17" stroke-opacity="0.22"/>
<path d="M39.4138 62.281V61.321H41.3218V55.321L39.7018 56.425L39.1378 55.597L41.8378 53.761H42.4978V61.321H44.3338V62.281H39.4138ZM49.0811 62.389C48.0891 62.389 47.3291 62.049 46.8011 61.369C46.2811 60.681 46.0211 59.665 46.0211 58.321C46.0211 57.377 46.1571 56.557 46.4291 55.861C46.7011 55.157 47.0891 54.613 47.5931 54.229C48.1051 53.837 48.7091 53.641 49.4051 53.641C50.6771 53.641 51.5371 54.269 51.9851 55.525L50.9891 55.981C50.8291 55.525 50.6131 55.197 50.3411 54.997C50.0771 54.797 49.7451 54.697 49.3451 54.697C48.7211 54.697 48.2051 54.981 47.7971 55.549C47.3891 56.117 47.1851 56.977 47.1851 58.129V58.153C47.4011 57.769 47.7011 57.469 48.0851 57.253C48.4771 57.029 48.9171 56.917 49.4051 56.917C49.8851 56.917 50.3171 57.021 50.7011 57.229C51.0851 57.437 51.3891 57.737 51.6131 58.129C51.8371 58.513 51.9491 58.965 51.9491 59.485C51.9491 60.037 51.8251 60.533 51.5771 60.973C51.3371 61.413 51.0011 61.761 50.5691 62.017C50.1371 62.265 49.6411 62.389 49.0811 62.389ZM49.0571 61.405C49.5691 61.405 49.9811 61.237 50.2931 60.901C50.6051 60.557 50.7611 60.117 50.7611 59.581C50.7611 59.077 50.6171 58.673 50.3291 58.369C50.0411 58.057 49.6491 57.901 49.1531 57.901C48.8171 57.901 48.5171 57.977 48.2531 58.129C47.9891 58.273 47.7771 58.481 47.6171 58.753C47.4651 59.025 47.3891 59.337 47.3891 59.689C47.3891 60.225 47.5411 60.645 47.8451 60.949C48.1491 61.253 48.5531 61.405 49.0571 61.405ZM55.9884 62.389C55.0204 62.389 54.2764 62.041 53.7564 61.345C53.2364 60.649 52.9764 59.593 52.9764 58.177C52.9764 57.273 53.1044 56.481 53.3604 55.801C53.6244 55.121 53.9924 54.593 54.4644 54.217C54.9364 53.833 55.4924 53.641 56.1324 53.641C57.0284 53.641 57.7324 54.005 58.2444 54.733C58.7644 55.461 59.0244 56.501 59.0244 57.853C59.0244 58.781 58.8964 59.585 58.6404 60.265C58.3844 60.937 58.0284 61.457 57.5724 61.825C57.1164 62.193 56.5884 62.381 55.9884 62.389ZM55.9764 61.321C56.5524 61.321 57.0084 61.029 57.3444 60.445C57.6804 59.861 57.8484 58.993 57.8484 57.841C57.8484 56.817 57.6964 56.037 57.3924 55.501C57.0964 54.957 56.6724 54.685 56.1204 54.685C55.5284 54.685 55.0524 54.989 54.6924 55.597C54.3404 56.205 54.1644 57.061 54.1644 58.165C54.1644 59.237 54.3204 60.033 54.6324 60.553C54.9444 61.065 55.3924 61.321 55.9764 61.321Z" fill="#94623D"/>
<path d="M60.4273 212.905V205.891H61.7713L61.6873 207.949C61.9579 207.202 62.3313 206.656 62.8073 206.311C63.2833 205.956 63.7966 205.779 64.3473 205.779C64.9166 205.779 65.3879 205.942 65.7613 206.269C66.1439 206.586 66.4006 207.071 66.5313 207.725C66.8113 207.071 67.1939 206.586 67.6793 206.269C68.1739 205.942 68.6919 205.779 69.2333 205.779C69.9799 205.779 70.5493 206.04 70.9413 206.563C71.3333 207.076 71.5246 207.818 71.5153 208.789L71.4873 212.905H70.1433L70.1713 208.887C70.1806 208.28 70.0779 207.818 69.8633 207.501C69.6579 207.183 69.3313 207.025 68.8833 207.025C68.5939 207.025 68.3139 207.118 68.0433 207.305C67.7726 207.491 67.5299 207.804 67.3153 208.243C67.1099 208.681 66.9419 209.283 66.8113 210.049C66.6899 210.805 66.6246 211.757 66.6153 212.905H65.2993V208.887C65.2993 208.28 65.1966 207.818 64.9913 207.501C64.7953 207.183 64.4779 207.025 64.0393 207.025C63.7406 207.025 63.4559 207.118 63.1853 207.305C62.9146 207.491 62.6719 207.804 62.4573 208.243C62.2426 208.681 62.0746 209.283 61.9533 210.049C61.8319 210.805 61.7666 211.757 61.7573 212.905H60.4273ZM74.7182 205.891V212.905H73.3882V205.891H74.7182ZM74.0742 204.533C73.8035 204.533 73.5889 204.449 73.4302 204.281C73.2715 204.103 73.1922 203.898 73.1922 203.665C73.1922 203.431 73.2715 203.231 73.4302 203.063C73.5889 202.885 73.8035 202.797 74.0742 202.797C74.3449 202.797 74.5595 202.885 74.7182 203.063C74.8769 203.231 74.9562 203.431 74.9562 203.665C74.9562 203.898 74.8769 204.103 74.7182 204.281C74.5595 204.449 74.3449 204.533 74.0742 204.533ZM76.6968 212.905V205.891H78.0408L77.9568 207.963C78.2181 207.263 78.5868 206.726 79.0628 206.353C79.5388 205.97 80.0941 205.779 80.7288 205.779C81.4755 205.779 82.0448 206.04 82.4368 206.563C82.8288 207.076 83.0201 207.818 83.0108 208.789L82.9828 212.905H81.6528L81.6808 208.915C81.6901 207.655 81.2608 207.025 80.3928 207.025C79.9355 207.025 79.5295 207.202 79.1748 207.557C78.8295 207.911 78.5541 208.518 78.3488 209.377C78.1435 210.235 78.0361 211.411 78.0268 212.905H76.6968Z" fill="#8A613B"/>
<path d="M119.222 211.919C118.766 211.919 118.322 211.867 117.89 211.763C117.466 211.651 117.122 211.499 116.858 211.307L117.194 210.275C117.45 210.443 117.754 210.583 118.106 210.695C118.466 210.799 118.866 210.851 119.306 210.851C119.882 210.851 120.342 210.715 120.686 210.443C121.03 210.171 121.202 209.767 121.202 209.231C121.202 208.743 121.006 208.359 120.614 208.079C120.23 207.799 119.566 207.643 118.622 207.611L117.386 207.575L117.698 203.291H121.97V204.251H118.778L118.598 206.603L118.85 206.615C120.074 206.655 120.97 206.907 121.538 207.371C122.106 207.835 122.39 208.451 122.39 209.219C122.39 209.771 122.258 210.251 121.994 210.659C121.738 211.059 121.374 211.371 120.902 211.595C120.43 211.811 119.87 211.919 119.222 211.919Z" fill="#8A613B"/>
<path d="M166.324 210.905V209.945H168.232V203.945L166.612 205.049L166.048 204.221L168.748 202.385H169.408V209.945H171.244V210.905H166.324ZM175.703 211.013C174.735 211.013 173.991 210.665 173.471 209.969C172.951 209.273 172.691 208.217 172.691 206.801C172.691 205.897 172.819 205.105 173.075 204.425C173.339 203.745 173.707 203.217 174.179 202.841C174.651 202.457 175.207 202.265 175.847 202.265C176.743 202.265 177.447 202.629 177.959 203.357C178.479 204.085 178.739 205.125 178.739 206.477C178.739 207.405 178.611 208.209 178.355 208.889C178.099 209.561 177.743 210.081 177.287 210.449C176.831 210.817 176.303 211.005 175.703 211.013ZM175.691 209.945C176.267 209.945 176.723 209.653 177.059 209.069C177.395 208.485 177.563 207.617 177.563 206.465C177.563 205.441 177.411 204.661 177.107 204.125C176.811 203.581 176.387 203.309 175.835 203.309C175.243 203.309 174.767 203.613 174.407 204.221C174.055 204.829 173.879 205.685 173.879 206.789C173.879 207.861 174.035 208.657 174.347 209.177C174.659 209.689 175.107 209.945 175.691 209.945Z" fill="#8A613B"/>
<path d="M218.632 211.811V210.851H220.54V204.851L218.92 205.955L218.356 205.127L221.056 203.291H221.716V210.851H223.552V211.811H218.632ZM227.603 211.919C227.147 211.919 226.703 211.867 226.271 211.763C225.847 211.651 225.503 211.499 225.239 211.307L225.575 210.275C225.831 210.443 226.135 210.583 226.487 210.695C226.847 210.799 227.247 210.851 227.687 210.851C228.263 210.851 228.723 210.715 229.067 210.443C229.411 210.171 229.583 209.767 229.583 209.231C229.583 208.743 229.387 208.359 228.995 208.079C228.611 207.799 227.947 207.643 227.003 207.611L225.767 207.575L226.079 203.291H230.351V204.251H227.159L226.979 206.603L227.231 206.615C228.455 206.655 229.351 206.907 229.919 207.371C230.487 207.835 230.771 208.451 230.771 209.219C230.771 209.771 230.639 210.251 230.375 210.659C230.119 211.059 229.755 211.371 229.283 211.595C228.811 211.811 228.251 211.919 227.603 211.919Z" fill="#8A613B"/>
<path d="M270.603 211.811V211.019C271.611 210.211 272.399 209.487 272.967 208.847C273.535 208.207 273.935 207.627 274.167 207.107C274.407 206.587 274.527 206.111 274.527 205.679C274.527 205.231 274.395 204.879 274.131 204.623C273.875 204.359 273.527 204.227 273.087 204.227C272.151 204.227 271.519 204.735 271.191 205.751L270.291 205.307C270.483 204.683 270.827 204.171 271.323 203.771C271.827 203.371 272.443 203.171 273.171 203.171C273.659 203.171 274.095 203.267 274.479 203.459C274.863 203.651 275.163 203.927 275.379 204.287C275.595 204.647 275.707 205.079 275.715 205.583C275.715 206.111 275.595 206.651 275.355 207.203C275.123 207.755 274.743 208.331 274.215 208.931C273.695 209.531 273.003 210.171 272.139 210.851H275.931V211.811H270.603ZM280.318 211.919C279.35 211.919 278.606 211.571 278.086 210.875C277.566 210.179 277.306 209.123 277.306 207.707C277.306 206.803 277.434 206.011 277.69 205.331C277.954 204.651 278.322 204.123 278.794 203.747C279.266 203.363 279.822 203.171 280.462 203.171C281.358 203.171 282.062 203.535 282.574 204.263C283.094 204.991 283.354 206.031 283.354 207.383C283.354 208.311 283.226 209.115 282.97 209.795C282.714 210.467 282.358 210.987 281.902 211.355C281.446 211.723 280.918 211.911 280.318 211.919ZM280.306 210.851C280.882 210.851 281.338 210.559 281.674 209.975C282.01 209.391 282.178 208.523 282.178 207.371C282.178 206.347 282.026 205.567 281.722 205.031C281.426 204.487 281.002 204.215 280.45 204.215C279.858 204.215 279.382 204.519 279.022 205.127C278.67 205.735 278.494 206.591 278.494 207.695C278.494 208.767 278.65 209.563 278.962 210.083C279.274 210.595 279.722 210.851 280.306 210.851Z" fill="#8A613B"/>
<path d="M323.768 211.811V211.019C324.776 210.211 325.564 209.487 326.132 208.847C326.7 208.207 327.1 207.627 327.332 207.107C327.572 206.587 327.692 206.111 327.692 205.679C327.692 205.231 327.56 204.879 327.296 204.623C327.04 204.359 326.692 204.227 326.252 204.227C325.316 204.227 324.684 204.735 324.356 205.751L323.456 205.307C323.648 204.683 323.992 204.171 324.488 203.771C324.992 203.371 325.608 203.171 326.336 203.171C326.824 203.171 327.26 203.267 327.644 203.459C328.028 203.651 328.328 203.927 328.544 204.287C328.76 204.647 328.872 205.079 328.88 205.583C328.88 206.111 328.76 206.651 328.52 207.203C328.288 207.755 327.908 208.331 327.38 208.931C326.86 209.531 326.168 210.171 325.304 210.851H329.096V211.811H323.768ZM333.076 211.919C332.62 211.919 332.176 211.867 331.744 211.763C331.32 211.651 330.976 211.499 330.712 211.307L331.048 210.275C331.304 210.443 331.608 210.583 331.96 210.695C332.32 210.799 332.72 210.851 333.16 210.851C333.736 210.851 334.196 210.715 334.54 210.443C334.884 210.171 335.056 209.767 335.056 209.231C335.056 208.743 334.86 208.359 334.468 208.079C334.084 207.799 333.42 207.643 332.476 207.611L331.24 207.575L331.552 203.291H335.824V204.251H332.632L332.452 206.603L332.704 206.615C333.928 206.655 334.824 206.907 335.392 207.371C335.96 207.835 336.244 208.451 336.244 209.219C336.244 209.771 336.112 210.251 335.848 210.659C335.592 211.059 335.228 211.371 334.756 211.595C334.284 211.811 333.724 211.919 333.076 211.919Z" fill="#8A613B"/>
<path d="M39.4138 89.4683V88.5083H41.3218V82.5083L39.7018 83.6123L39.1378 82.7843L41.8378 80.9483H42.4978V88.5083H44.3338V89.4683H39.4138ZM49.6571 89.4683V87.1043H45.7451V86.2883L49.9811 80.9243H50.7971V86.1443H51.9971V87.1043H50.7971V89.4683H49.6571ZM46.9931 86.1443H49.6571V82.7723L46.9931 86.1443ZM55.9884 89.5763C55.0204 89.5763 54.2764 89.2283 53.7564 88.5323C53.2364 87.8363 52.9764 86.7803 52.9764 85.3643C52.9764 84.4603 53.1044 83.6683 53.3604 82.9883C53.6244 82.3083 53.9924 81.7803 54.4644 81.4043C54.9364 81.0203 55.4924 80.8283 56.1324 80.8283C57.0284 80.8283 57.7324 81.1923 58.2444 81.9203C58.7644 82.6483 59.0244 83.6883 59.0244 85.0403C59.0244 85.9683 58.8964 86.7723 58.6404 87.4523C58.3844 88.1243 58.0284 88.6443 57.5724 89.0123C57.1164 89.3803 56.5884 89.5683 55.9884 89.5763ZM55.9764 88.5083C56.5524 88.5083 57.0084 88.2163 57.3444 87.6323C57.6804 87.0483 57.8484 86.1803 57.8484 85.0283C57.8484 84.0043 57.6964 83.2243 57.3924 82.6883C57.0964 82.1443 56.6724 81.8723 56.1204 81.8723C55.5284 81.8723 55.0524 82.1763 54.6924 82.7843C54.3404 83.3923 54.1644 84.2483 54.1644 85.3523C54.1644 86.4243 54.3204 87.2203 54.6324 87.7403C54.9444 88.2523 55.3924 88.5083 55.9764 88.5083Z" fill="#94623D"/>
<path d="M42.4682 171.138C41.5402 171.138 40.8042 170.93 40.2602 170.514C39.7242 170.09 39.4562 169.522 39.4562 168.81C39.4562 168.33 39.6002 167.898 39.8882 167.514C40.1842 167.13 40.5682 166.858 41.0402 166.698C40.6162 166.53 40.2762 166.274 40.0202 165.93C39.7722 165.586 39.6482 165.194 39.6482 164.754C39.6482 164.298 39.7682 163.894 40.0082 163.542C40.2482 163.182 40.5802 162.902 41.0042 162.702C41.4282 162.494 41.9162 162.39 42.4682 162.39C43.0202 162.39 43.5082 162.494 43.9322 162.702C44.3562 162.902 44.6882 163.182 44.9282 163.542C45.1682 163.894 45.2882 164.298 45.2882 164.754C45.2882 165.194 45.1602 165.586 44.9042 165.93C44.6562 166.274 44.3202 166.53 43.8962 166.698C44.3682 166.858 44.7482 167.13 45.0362 167.514C45.3322 167.898 45.4802 168.33 45.4802 168.81C45.4802 169.522 45.2082 170.09 44.6642 170.514C44.1282 170.93 43.3962 171.138 42.4682 171.138ZM42.4682 166.254C42.9642 166.254 43.3602 166.126 43.6562 165.87C43.9522 165.614 44.1002 165.274 44.1002 164.85C44.1002 164.402 43.9482 164.046 43.6442 163.782C43.3402 163.51 42.9482 163.374 42.4682 163.374C41.9882 163.374 41.5962 163.51 41.2922 163.782C40.9882 164.046 40.8362 164.402 40.8362 164.85C40.8362 165.274 40.9842 165.614 41.2802 165.87C41.5842 166.126 41.9802 166.254 42.4682 166.254ZM42.4682 170.154C43.0362 170.154 43.4802 170.026 43.8002 169.77C44.1282 169.514 44.2922 169.162 44.2922 168.714C44.2922 168.266 44.1242 167.902 43.7882 167.622C43.4522 167.334 43.0122 167.19 42.4682 167.19C41.9242 167.19 41.4842 167.33 41.1482 167.61C40.8122 167.89 40.6442 168.258 40.6442 168.714C40.6442 169.162 40.8042 169.514 41.1242 169.77C41.4522 170.026 41.9002 170.154 42.4682 170.154ZM49.6515 171.138C48.6835 171.138 47.9395 170.79 47.4195 170.094C46.8995 169.398 46.6395 168.342 46.6395 166.926C46.6395 166.022 46.7675 165.23 47.0235 164.55C47.2875 163.87 47.6555 163.342 48.1275 162.966C48.5995 162.582 49.1555 162.39 49.7955 162.39C50.6915 162.39 51.3955 162.754 51.9075 163.482C52.4275 164.21 52.6875 165.25 52.6875 166.602C52.6875 167.53 52.5595 168.334 52.3035 169.014C52.0475 169.686 51.6915 170.206 51.2355 170.574C50.7795 170.942 50.2515 171.13 49.6515 171.138ZM49.6395 170.07C50.2155 170.07 50.6715 169.778 51.0075 169.194C51.3435 168.61 51.5115 167.742 51.5115 166.59C51.5115 165.566 51.3595 164.786 51.0555 164.25C50.7595 163.706 50.3355 163.434 49.7835 163.434C49.1915 163.434 48.7155 163.738 48.3555 164.346C48.0035 164.954 47.8275 165.81 47.8275 166.914C47.8275 167.986 47.9835 168.782 48.2955 169.302C48.6075 169.814 49.0555 170.07 49.6395 170.07Z" fill="#94623D"/>
<path d="M41.8858 198.326C40.8938 198.326 40.1338 197.986 39.6058 197.306C39.0858 196.618 38.8258 195.602 38.8258 194.258C38.8258 193.314 38.9618 192.494 39.2338 191.798C39.5058 191.094 39.8938 190.55 40.3978 190.166C40.9098 189.774 41.5138 189.578 42.2098 189.578C43.4818 189.578 44.3418 190.206 44.7898 191.462L43.7938 191.918C43.6338 191.462 43.4178 191.134 43.1458 190.934C42.8818 190.734 42.5498 190.634 42.1498 190.634C41.5258 190.634 41.0098 190.918 40.6018 191.486C40.1938 192.054 39.9898 192.914 39.9898 194.066V194.09C40.2058 193.706 40.5058 193.406 40.8898 193.19C41.2818 192.966 41.7218 192.854 42.2098 192.854C42.6898 192.854 43.1218 192.958 43.5058 193.166C43.8898 193.374 44.1938 193.674 44.4178 194.066C44.6418 194.45 44.7538 194.902 44.7538 195.422C44.7538 195.974 44.6298 196.47 44.3818 196.91C44.1418 197.35 43.8058 197.698 43.3738 197.954C42.9418 198.202 42.4458 198.326 41.8858 198.326ZM41.8618 197.342C42.3738 197.342 42.7858 197.174 43.0978 196.838C43.4098 196.494 43.5658 196.054 43.5658 195.518C43.5658 195.014 43.4218 194.61 43.1338 194.306C42.8458 193.994 42.4538 193.838 41.9578 193.838C41.6218 193.838 41.3218 193.914 41.0578 194.066C40.7938 194.21 40.5818 194.418 40.4218 194.69C40.2698 194.962 40.1938 195.274 40.1938 195.626C40.1938 196.162 40.3458 196.582 40.6498 196.886C40.9538 197.19 41.3578 197.342 41.8618 197.342ZM48.7931 198.326C47.8251 198.326 47.0811 197.978 46.5611 197.282C46.0411 196.586 45.7811 195.53 45.7811 194.114C45.7811 193.21 45.9091 192.418 46.1651 191.738C46.4291 191.058 46.7971 190.53 47.2691 190.154C47.7411 189.77 48.2971 189.578 48.9371 189.578C49.8331 189.578 50.5371 189.942 51.0491 190.67C51.5691 191.398 51.8291 192.438 51.8291 193.79C51.8291 194.718 51.7011 195.522 51.4451 196.202C51.1891 196.874 50.8331 197.394 50.3771 197.762C49.9211 198.13 49.3931 198.318 48.7931 198.326ZM48.7811 197.258C49.3571 197.258 49.8131 196.966 50.1491 196.382C50.4851 195.798 50.6531 194.93 50.6531 193.778C50.6531 192.754 50.5011 191.974 50.1971 191.438C49.9011 190.894 49.4771 190.622 48.9251 190.622C48.3331 190.622 47.8571 190.926 47.4971 191.534C47.1451 192.142 46.9691 192.998 46.9691 194.102C46.9691 195.174 47.1251 195.97 47.4371 196.49C47.7491 197.002 48.1971 197.258 48.7811 197.258Z" fill="#94623D"/>
<path d="M39.4138 116.656V115.696H41.3218V109.696L39.7018 110.8L39.1378 109.972L41.8378 108.136H42.4978V115.696H44.3338V116.656H39.4138ZM46.2731 116.656V115.864C47.2811 115.056 48.0691 114.332 48.6371 113.692C49.2051 113.052 49.6051 112.472 49.8371 111.952C50.0771 111.432 50.1971 110.956 50.1971 110.524C50.1971 110.076 50.0651 109.724 49.8011 109.468C49.5451 109.204 49.1971 109.072 48.7571 109.072C47.8211 109.072 47.1891 109.58 46.8611 110.596L45.9611 110.152C46.1531 109.528 46.4971 109.016 46.9931 108.616C47.4971 108.216 48.1131 108.016 48.8411 108.016C49.3291 108.016 49.7651 108.112 50.1491 108.304C50.5331 108.496 50.8331 108.772 51.0491 109.132C51.2651 109.492 51.3771 109.924 51.3851 110.428C51.3851 110.956 51.2651 111.496 51.0251 112.048C50.7931 112.6 50.4131 113.176 49.8851 113.776C49.3651 114.376 48.6731 115.016 47.8091 115.696H51.6011V116.656H46.2731ZM55.9884 116.764C55.0204 116.764 54.2764 116.416 53.7564 115.72C53.2364 115.024 52.9764 113.968 52.9764 112.552C52.9764 111.648 53.1044 110.856 53.3604 110.176C53.6244 109.496 53.9924 108.968 54.4644 108.592C54.9364 108.208 55.4924 108.016 56.1324 108.016C57.0284 108.016 57.7324 108.38 58.2444 109.108C58.7644 109.836 59.0244 110.876 59.0244 112.228C59.0244 113.156 58.8964 113.96 58.6404 114.64C58.3844 115.312 58.0284 115.832 57.5724 116.2C57.1164 116.568 56.5884 116.756 55.9884 116.764ZM55.9764 115.696C56.5524 115.696 57.0084 115.404 57.3444 114.82C57.6804 114.236 57.8484 113.368 57.8484 112.216C57.8484 111.192 57.6964 110.412 57.3924 109.876C57.0964 109.332 56.6724 109.06 56.1204 109.06C55.5284 109.06 55.0524 109.364 54.6924 109.972C54.3404 110.58 54.1644 111.436 54.1644 112.54C54.1644 113.612 54.3204 114.408 54.6324 114.928C54.9444 115.44 55.3924 115.696 55.9764 115.696Z" fill="#94623D"/>
<path d="M39.4138 143.843V142.883H41.3218V136.883L39.7018 137.987L39.1378 137.159L41.8378 135.323H42.4978V142.883H44.3338V143.843H39.4138ZM48.7931 143.951C47.8251 143.951 47.0811 143.603 46.5611 142.907C46.0411 142.211 45.7811 141.155 45.7811 139.739C45.7811 138.835 45.9091 138.043 46.1651 137.363C46.4291 136.683 46.7971 136.155 47.2691 135.779C47.7411 135.395 48.2971 135.203 48.9371 135.203C49.8331 135.203 50.5371 135.567 51.0491 136.295C51.5691 137.023 51.8291 138.063 51.8291 139.415C51.8291 140.343 51.7011 141.147 51.4451 141.827C51.1891 142.499 50.8331 143.019 50.3771 143.387C49.9211 143.755 49.3931 143.943 48.7931 143.951ZM48.7811 142.883C49.3571 142.883 49.8131 142.591 50.1491 142.007C50.4851 141.423 50.6531 140.555 50.6531 139.403C50.6531 138.379 50.5011 137.599 50.1971 137.063C49.9011 136.519 49.4771 136.247 48.9251 136.247C48.3331 136.247 47.8571 136.551 47.4971 137.159C47.1451 137.767 46.9691 138.623 46.9691 139.727C46.9691 140.799 47.1251 141.595 47.4371 142.115C47.7491 142.627 48.1971 142.883 48.7811 142.883ZM55.9884 143.951C55.0204 143.951 54.2764 143.603 53.7564 142.907C53.2364 142.211 52.9764 141.155 52.9764 139.739C52.9764 138.835 53.1044 138.043 53.3604 137.363C53.6244 136.683 53.9924 136.155 54.4644 135.779C54.9364 135.395 55.4924 135.203 56.1324 135.203C57.0284 135.203 57.7324 135.567 58.2444 136.295C58.7644 137.023 59.0244 138.063 59.0244 139.415C59.0244 140.343 58.8964 141.147 58.6404 141.827C58.3844 142.499 58.0284 143.019 57.5724 143.387C57.1164 143.755 56.5884 143.943 55.9884 143.951ZM55.9764 142.883C56.5524 142.883 57.0084 142.591 57.3444 142.007C57.6804 141.423 57.8484 140.555 57.8484 139.403C57.8484 138.379 57.6964 137.599 57.3924 137.063C57.0964 136.519 56.6724 136.247 56.1204 136.247C55.5284 136.247 55.0524 136.551 54.6924 137.159C54.3404 137.767 54.1644 138.623 54.1644 139.727C54.1644 140.799 54.3204 141.595 54.6324 142.115C54.9444 142.627 55.3924 142.883 55.9764 142.883Z" fill="#94623D"/>
<path d="M24.7058 62.401C24.4578 62.401 24.1898 62.381 23.9018 62.341C23.6138 62.309 23.3338 62.253 23.0618 62.173C22.7898 62.085 22.5578 61.973 22.3658 61.837L22.8098 60.181C23.0818 60.349 23.3858 60.485 23.7218 60.589C24.0578 60.685 24.4218 60.733 24.8138 60.733C25.3258 60.733 25.7058 60.629 25.9538 60.421C26.2018 60.213 26.3258 59.933 26.3258 59.581C26.3258 59.381 26.2738 59.197 26.1698 59.029C26.0658 58.853 25.8658 58.713 25.5698 58.609C25.2738 58.497 24.8418 58.429 24.2738 58.405L22.8698 58.357L23.2418 53.761H27.7778V55.285H24.9578L24.8258 56.857C25.9378 56.905 26.7818 57.157 27.3578 57.613C27.9338 58.069 28.2218 58.717 28.2218 59.557C28.2218 60.109 28.0778 60.601 27.7898 61.033C27.5018 61.457 27.0938 61.793 26.5658 62.041C26.0378 62.281 25.4178 62.401 24.7058 62.401Z" fill="#EDC184"/>
<path d="M25.7618 89.4685V87.4645H22.0778V86.1565L26.2778 80.9245H27.5978V85.9645H28.7978V87.4645H27.5978V89.4685H25.7618ZM23.9978 85.9645H25.7618V83.7445L23.9978 85.9645Z" fill="#EDC184"/>
<path d="M22.8458 171.03V169.506H24.7658V164.994L23.4338 165.918L22.5458 164.586L25.5818 162.51H26.6618V169.506H28.4498V171.03H22.8458Z" fill="#EDC184"/>
<path d="M25.3658 198.338C24.3018 198.354 23.4938 198.018 22.9418 197.33C22.3898 196.634 22.1138 195.562 22.1138 194.114C22.1138 193.218 22.2458 192.43 22.5098 191.75C22.7818 191.062 23.1658 190.53 23.6618 190.154C24.1658 189.77 24.7658 189.578 25.4618 189.578C26.4298 189.578 27.1818 189.934 27.7178 190.646C28.2538 191.358 28.5218 192.406 28.5218 193.79C28.5218 194.67 28.3938 195.454 28.1378 196.142C27.8898 196.822 27.5298 197.358 27.0578 197.75C26.5858 198.134 26.0218 198.33 25.3658 198.338ZM25.3058 196.682C25.7458 196.682 26.0738 196.438 26.2898 195.95C26.5058 195.454 26.6138 194.738 26.6138 193.802C26.6138 192.082 26.2138 191.222 25.4138 191.222C24.9658 191.222 24.6218 191.474 24.3818 191.978C24.1498 192.474 24.0338 193.174 24.0338 194.078C24.0338 194.958 24.1338 195.614 24.3338 196.046C24.5418 196.47 24.8658 196.682 25.3058 196.682Z" fill="#EDC184"/>
<path d="M24.7178 116.776C24.4538 116.776 24.1738 116.756 23.8778 116.716C23.5898 116.676 23.3098 116.616 23.0378 116.536C22.7738 116.448 22.5498 116.344 22.3658 116.224L22.8098 114.58C23.0818 114.74 23.3858 114.868 23.7218 114.964C24.0578 115.06 24.4258 115.108 24.8258 115.108C25.3538 115.108 25.7338 115.012 25.9658 114.82C26.2058 114.628 26.3258 114.384 26.3258 114.088C26.3258 113.432 25.8178 113.104 24.8018 113.104H24.2738V111.592H24.7178C25.2458 111.592 25.6138 111.492 25.8218 111.292C26.0378 111.084 26.1458 110.836 26.1458 110.548C26.1458 110.3 26.0578 110.096 25.8818 109.936C25.7138 109.768 25.4538 109.684 25.1018 109.684C24.7258 109.684 24.4098 109.796 24.1538 110.02C23.8978 110.236 23.7098 110.524 23.5898 110.884L22.2098 110.14C22.3458 109.724 22.5618 109.356 22.8578 109.036C23.1538 108.716 23.5098 108.468 23.9258 108.292C24.3498 108.108 24.8138 108.016 25.3178 108.016C25.8618 108.016 26.3378 108.112 26.7458 108.304C27.1538 108.496 27.4698 108.768 27.6938 109.12C27.9178 109.464 28.0298 109.872 28.0298 110.344C28.0298 110.744 27.9178 111.12 27.6938 111.472C27.4778 111.824 27.1578 112.088 26.7338 112.264C27.2138 112.4 27.5818 112.628 27.8378 112.948C28.0938 113.268 28.2218 113.676 28.2218 114.172C28.2218 114.668 28.0778 115.116 27.7898 115.516C27.5018 115.908 27.0938 116.216 26.5658 116.44C26.0458 116.664 25.4298 116.776 24.7178 116.776Z" fill="#EDC184"/>
<path d="M22.4858 143.843V142.559C23.7658 141.655 24.6938 140.803 25.2698 140.003C25.8458 139.203 26.1338 138.511 26.1338 137.927C26.1338 137.591 26.0418 137.331 25.8578 137.147C25.6738 136.963 25.4178 136.871 25.0898 136.871C24.7218 136.871 24.4098 136.983 24.1538 137.207C23.8978 137.423 23.7098 137.711 23.5898 138.071L22.2098 137.327C22.3458 136.911 22.5618 136.543 22.8578 136.223C23.1538 135.903 23.5098 135.655 23.9258 135.479C24.3498 135.295 24.8138 135.203 25.3178 135.203C25.8698 135.203 26.3498 135.311 26.7578 135.527C27.1658 135.735 27.4818 136.031 27.7058 136.415C27.9298 136.791 28.0378 137.227 28.0298 137.723C28.0298 138.467 27.7898 139.223 27.3098 139.991C26.8378 140.751 26.0458 141.527 24.9338 142.319H28.2338V143.843H22.4858Z" fill="#EDC184"/>
<rect x="72.3096" y="168.093" width="6.86" height="26.281" rx="3.43" fill="url(#paint0_linear_665_13)"/>
<rect x="83.458" y="140.905" width="6.86" height="53.4683" rx="3.43" fill="url(#paint1_linear_665_13)"/>
<rect x="94.6045" y="57.531" width="6.86" height="136.843" rx="3.43" fill="url(#paint2_linear_665_13)"/>
<rect x="105.753" y="57.531" width="6.86" height="136.843" rx="3.43" fill="url(#paint3_linear_665_13)"/>
<rect x="116.9" y="84.7183" width="6.86" height="109.655" rx="3.43" fill="url(#paint4_linear_665_13)"/>
<rect x="127.19" y="84.7183" width="6.86" height="109.655" rx="3.43" fill="url(#paint5_linear_665_13)"/>
<rect x="137.479" y="84.7183" width="6.86" height="109.655" rx="3.43" fill="url(#paint6_linear_665_13)"/>
<rect x="147.771" y="112.812" width="6.86" height="81.5618" rx="3.43" fill="url(#paint7_linear_665_13)"/>
<rect x="158.06" y="112.812" width="6.86" height="81.5618" rx="3.43" fill="url(#paint8_linear_665_13)"/>
<rect x="169.208" y="84.7183" width="6.86" height="108.749" rx="3.43" fill="url(#paint9_linear_665_13)"/>
<rect x="179.497" y="84.7183" width="6.86" height="108.749" rx="3.43" fill="url(#paint10_linear_665_13)"/>
<rect x="189.787" y="84.7183" width="6.86" height="108.749" rx="3.43" fill="url(#paint11_linear_665_13)"/>
<rect x="200.077" y="57.531" width="6.86" height="135.936" rx="3.43" fill="url(#paint12_linear_665_13)"/>
<rect x="210.368" y="57.531" width="6.86" height="135.936" rx="3.43" fill="url(#paint13_linear_665_13)"/>
<rect x="221.515" y="57.531" width="6.86" height="135.936" rx="3.43" fill="url(#paint14_linear_665_13)"/>
<rect x="231.806" y="57.531" width="6.86" height="135.936" rx="3.43" fill="url(#paint15_linear_665_13)"/>
<rect x="242.095" y="112.812" width="6.86" height="80.6556" rx="3.43" fill="url(#paint16_linear_665_13)"/>
<rect x="252.385" y="112.812" width="6.86" height="80.6556" rx="3.43" fill="url(#paint17_linear_665_13)"/>
<rect x="262.675" y="140.905" width="6.86" height="52.5621" rx="3.43" fill="url(#paint18_linear_665_13)"/>
<rect x="273.822" y="140.905" width="6.86" height="52.5621" rx="3.43" fill="url(#paint19_linear_665_13)"/>
<rect x="284.112" y="140.905" width="6.86" height="52.5621" rx="3.43" fill="url(#paint20_linear_665_13)"/>
<rect x="294.402" y="168.093" width="6.86" height="25.3748" rx="3.43" fill="url(#paint21_linear_665_13)"/>
<rect x="304.691" y="168.093" width="6.86" height="25.3748" rx="3.43" fill="url(#paint22_linear_665_13)"/>
<rect x="314.982" y="168.093" width="6.86" height="25.3748" rx="3.43" fill="url(#paint23_linear_665_13)"/>
<path d="M75.7402 189.842C81.314 183.952 84.3152 178.514 87.3165 169.905C90.3177 161.296 89.8939 139.639 98.0352 122.78C101.666 115.261 102.782 109.707 109.183 104.656C113.024 101.624 116.536 102.316 120.33 99.2181C126.511 94.1716 126.333 85.6244 130.191 81.9994C134.05 78.3744 137.909 77.9214 140.91 77.9214C143.911 77.9214 146.064 78.7515 149.056 78.3744C153.213 77.8508 154.868 76.7769 158.918 75.6558C163.24 74.4591 165.699 73.9357 170.065 72.9371C175.072 71.7921 177.819 70.6134 182.928 70.2183C185.934 69.9859 187.681 70.7937 190.645 70.2183C196.407 69.0999 198.791 62.5152 203.508 62.0621C208.224 61.6091 209.738 63.9102 213.798 64.7809C218.114 65.7067 221.515 64.7809 224.945 66.5934C228.375 68.4058 231.367 72.5024 235.235 76.562C239.439 80.974 241.72 83.5445 245.525 88.3432C249.827 93.7679 251.712 97.2489 255.815 102.843C259.756 108.216 261.34 111.87 266.105 116.437C270.027 120.196 272.136 123.154 277.253 124.593C281.136 125.685 284.541 123.687 287.543 124.593C290.544 125.499 293.844 129.522 297.833 132.749C300.864 135.202 302.12 135.468 305.55 139.093C308.98 142.718 313.993 150.665 315.84 155.405" stroke="#8A613B" stroke-width="2" stroke-linecap="round"/>
<path d="M48.4086 44.7862C48.152 44.7862 47.906 44.7385 47.6705 44.6432C47.4351 44.5479 47.225 44.4055 47.0402 44.2161L41.3103 38.3182C40.8114 37.8066 40.4443 37.222 40.2088 36.5642C39.9733 35.9064 39.8559 35.2195 39.8564 34.5032C39.8564 32.9977 40.3339 31.7041 41.2889 30.6225C42.2439 29.5408 43.4341 29 44.8594 29C45.5436 29 46.1887 29.1389 46.7948 29.4166C47.4009 29.6943 47.9388 30.0816 48.4086 30.5786C48.8647 30.0816 49.3958 29.6943 50.0018 29.4166C50.6079 29.1389 51.2527 29 51.9363 29C53.3617 29 54.5556 29.5408 55.518 30.6225C56.4804 31.7041 56.9613 32.9904 56.9607 34.4813C56.9607 35.1975 56.8396 35.8845 56.5972 36.5423C56.3549 37.2 55.9915 37.7847 55.5068 38.2963L49.7555 44.2161C49.5702 44.4061 49.3636 44.5488 49.1355 44.6441C48.9075 44.7394 48.6651 44.7867 48.4086 44.7862ZM49.2638 33.385C49.4063 33.385 49.5417 33.4216 49.67 33.4947C49.7983 33.5678 49.8981 33.6628 49.9693 33.7797L51.4232 36.0161H54.9723C55.0721 35.7676 55.1468 35.5153 55.1964 35.2592C55.246 35.0031 55.2711 34.7438 55.2717 34.4813C55.2432 33.4727 54.9153 32.6066 54.2882 31.8827C53.661 31.1589 52.8771 30.7973 51.9363 30.7979C51.4945 30.7979 51.0703 30.8856 50.6638 31.061C50.2573 31.2364 49.9046 31.4922 49.6059 31.8284L49.0286 32.4642C48.9573 32.5519 48.8647 32.6215 48.7507 32.6729C48.6366 32.7244 48.5226 32.7498 48.4086 32.7492C48.2946 32.7492 48.1805 32.7238 48.0665 32.6729C47.9525 32.622 47.8527 32.5525 47.7672 32.4642L47.1899 31.8284C46.8906 31.4922 46.5414 31.2291 46.1423 31.039C45.7432 30.849 45.3156 30.754 44.8594 30.754C43.9187 30.754 43.1348 31.1232 42.5076 31.8617C41.8805 32.6001 41.5669 33.4733 41.5669 34.4813C41.5669 34.7444 41.5883 35.004 41.631 35.2601C41.6738 35.5162 41.745 35.7682 41.8448 36.0161H45.8429C45.9855 36.0161 46.1209 36.0526 46.2492 36.1257C46.3774 36.1988 46.4772 36.2938 46.5485 36.4107L47.2968 37.5508L48.4513 33.999C48.5084 33.8235 48.6116 33.6774 48.7609 33.5604C48.9103 33.4435 49.0779 33.385 49.2638 33.385ZM49.5204 36.2353L48.3658 39.7872C48.3088 39.9626 48.2019 40.1088 48.0451 40.2257C47.8883 40.3426 47.7173 40.4011 47.532 40.4011C47.3895 40.4011 47.254 40.3646 47.1258 40.2915C46.9975 40.2184 46.8977 40.1234 46.8264 40.0065L45.3726 37.7701H43.1918L48.2589 42.9664C48.2874 42.9956 48.3125 43.014 48.3342 43.0216C48.3558 43.0292 48.3806 43.0327 48.4086 43.0321C48.4371 43.0321 48.4622 43.0283 48.4838 43.0207C48.5055 43.0131 48.5303 42.995 48.5582 42.9664L53.604 37.7701H50.9742C50.8317 37.7701 50.6963 37.7335 50.568 37.6605C50.4397 37.5874 50.3328 37.4924 50.2473 37.3754L49.5204 36.2353Z" fill="#94623D"/>
<rect x="20" y="42.1536" width="12.005" height="2.15899" rx="1.0795" fill="#94623D"/>
<rect x="20" y="37.5957" width="12.005" height="2.15899" rx="1.0795" fill="#94623D"/>
<rect x="20" y="33.0376" width="12.005" height="2.15899" rx="1.0795" fill="#ECCDA2"/>
<rect x="20" y="28" width="12.005" height="2.15899" rx="1.0795" fill="#ECCDA2"/>
<defs>
<linearGradient id="paint0_linear_665_13" x1="75.7396" y1="168.093" x2="75.7396" y2="194.374" gradientUnits="userSpaceOnUse">
<stop offset="0.130208" stop-color="#ECC083"/>
<stop offset="0.619792" stop-color="#F7E2AB"/>
</linearGradient>
<linearGradient id="paint1_linear_665_13" x1="86.888" y1="140.905" x2="86.888" y2="194.374" gradientUnits="userSpaceOnUse">
<stop offset="0.130208" stop-color="#ECC083"/>
<stop offset="0.619792" stop-color="#F7E2AB"/>
</linearGradient>
<linearGradient id="paint2_linear_665_13" x1="98.0345" y1="57.531" x2="98.0345" y2="194.374" gradientUnits="userSpaceOnUse">
<stop offset="0.130208" stop-color="#ECC083"/>
<stop offset="0.619792" stop-color="#F7E2AB"/>
</linearGradient>
<linearGradient id="paint3_linear_665_13" x1="109.183" y1="57.531" x2="109.183" y2="194.374" gradientUnits="userSpaceOnUse">
<stop offset="0.130208" stop-color="#ECC083"/>
<stop offset="0.619792" stop-color="#F7E2AB"/>
</linearGradient>
<linearGradient id="paint4_linear_665_13" x1="120.33" y1="84.7183" x2="120.33" y2="194.374" gradientUnits="userSpaceOnUse">
<stop offset="0.130208" stop-color="#ECC083"/>
<stop offset="0.619792" stop-color="#F7E2AB"/>
</linearGradient>
<linearGradient id="paint5_linear_665_13" x1="130.62" y1="84.7183" x2="130.62" y2="194.374" gradientUnits="userSpaceOnUse">
<stop offset="0.130208" stop-color="#ECC083"/>
<stop offset="0.619792" stop-color="#F7E2AB"/>
</linearGradient>
<linearGradient id="paint6_linear_665_13" x1="140.909" y1="84.7183" x2="140.909" y2="194.374" gradientUnits="userSpaceOnUse">
<stop offset="0.130208" stop-color="#ECC083"/>
<stop offset="0.619792" stop-color="#F7E2AB"/>
</linearGradient>
<linearGradient id="paint7_linear_665_13" x1="151.201" y1="112.812" x2="151.201" y2="194.374" gradientUnits="userSpaceOnUse">
<stop offset="0.130208" stop-color="#ECC083"/>
<stop offset="0.619792" stop-color="#F7E2AB"/>
</linearGradient>
<linearGradient id="paint8_linear_665_13" x1="161.49" y1="112.812" x2="161.49" y2="194.374" gradientUnits="userSpaceOnUse">
<stop offset="0.130208" stop-color="#ECC083"/>
<stop offset="0.619792" stop-color="#F7E2AB"/>
</linearGradient>
<linearGradient id="paint9_linear_665_13" x1="172.638" y1="84.7183" x2="172.638" y2="193.467" gradientUnits="userSpaceOnUse">
<stop offset="0.130208" stop-color="#ECC083"/>
<stop offset="0.619792" stop-color="#F7E2AB"/>
</linearGradient>
<linearGradient id="paint10_linear_665_13" x1="182.927" y1="84.7183" x2="182.927" y2="193.467" gradientUnits="userSpaceOnUse">
<stop offset="0.130208" stop-color="#ECC083"/>
<stop offset="0.619792" stop-color="#F7E2AB"/>
</linearGradient>
<linearGradient id="paint11_linear_665_13" x1="193.217" y1="84.7183" x2="193.217" y2="193.467" gradientUnits="userSpaceOnUse">
<stop offset="0.130208" stop-color="#ECC083"/>
<stop offset="0.619792" stop-color="#F7E2AB"/>
</linearGradient>
<linearGradient id="paint12_linear_665_13" x1="203.507" y1="57.531" x2="203.507" y2="193.467" gradientUnits="userSpaceOnUse">
<stop offset="0.130208" stop-color="#ECC083"/>
<stop offset="0.619792" stop-color="#F7E2AB"/>
</linearGradient>
<linearGradient id="paint13_linear_665_13" x1="213.798" y1="57.531" x2="213.798" y2="193.467" gradientUnits="userSpaceOnUse">
<stop offset="0.130208" stop-color="#ECC083"/>
<stop offset="0.619792" stop-color="#F7E2AB"/>
</linearGradient>
<linearGradient id="paint14_linear_665_13" x1="224.945" y1="57.531" x2="224.945" y2="193.467" gradientUnits="userSpaceOnUse">
<stop offset="0.130208" stop-color="#ECC083"/>
<stop offset="0.619792" stop-color="#F7E2AB"/>
</linearGradient>
<linearGradient id="paint15_linear_665_13" x1="235.236" y1="57.531" x2="235.236" y2="193.467" gradientUnits="userSpaceOnUse">
<stop offset="0.609375" stop-color="#ECC083"/>
<stop offset="0.817708" stop-color="#F7E2AB"/>
</linearGradient>
<linearGradient id="paint16_linear_665_13" x1="245.525" y1="112.812" x2="245.525" y2="193.468" gradientUnits="userSpaceOnUse">
<stop offset="0.130208" stop-color="#ECC083"/>
<stop offset="0.619792" stop-color="#F7E2AB"/>
</linearGradient>
<linearGradient id="paint17_linear_665_13" x1="255.815" y1="112.812" x2="255.815" y2="193.468" gradientUnits="userSpaceOnUse">
<stop offset="0.130208" stop-color="#ECC083"/>
<stop offset="0.619792" stop-color="#F7E2AB"/>
</linearGradient>
<linearGradient id="paint18_linear_665_13" x1="266.105" y1="140.905" x2="266.105" y2="193.467" gradientUnits="userSpaceOnUse">
<stop offset="0.130208" stop-color="#ECC083"/>
<stop offset="0.619792" stop-color="#F7E2AB"/>
</linearGradient>
<linearGradient id="paint19_linear_665_13" x1="277.252" y1="140.905" x2="277.252" y2="193.467" gradientUnits="userSpaceOnUse">
<stop offset="0.130208" stop-color="#ECC083"/>
<stop offset="0.619792" stop-color="#F7E2AB"/>
</linearGradient>
<linearGradient id="paint20_linear_665_13" x1="287.542" y1="140.905" x2="287.542" y2="193.467" gradientUnits="userSpaceOnUse">
<stop offset="0.130208" stop-color="#ECC083"/>
<stop offset="0.619792" stop-color="#F7E2AB"/>
</linearGradient>
<linearGradient id="paint21_linear_665_13" x1="297.832" y1="168.093" x2="297.832" y2="193.467" gradientUnits="userSpaceOnUse">
<stop offset="0.130208" stop-color="#ECC083"/>
<stop offset="0.619792" stop-color="#F7E2AB"/>
</linearGradient>
<linearGradient id="paint22_linear_665_13" x1="308.121" y1="168.093" x2="308.121" y2="193.467" gradientUnits="userSpaceOnUse">
<stop offset="0.130208" stop-color="#ECC083"/>
<stop offset="0.619792" stop-color="#F7E2AB"/>
</linearGradient>
<linearGradient id="paint23_linear_665_13" x1="318.412" y1="168.093" x2="318.412" y2="193.467" gradientUnits="userSpaceOnUse">
<stop offset="0.130208" stop-color="#ECC083"/>
<stop offset="0.619792" stop-color="#F7E2AB"/>
</linearGradient>
</defs>
</svg>
