<svg width="59" height="74" viewBox="0 0 59 74" fill="none" xmlns="http://www.w3.org/2000/svg">
<path d="M0 23.209H19.1928L21.3253 1L25.5904 49L31.988 13.1791L36.253 31.0896L43.3614 19.6269L50.4699 26.0746H59" stroke="#D7965E" stroke-width="3"/>
<path d="M10.168 70V58.64H13.944C15.384 58.64 16.488 58.9067 17.256 59.44C18.0347 59.9627 18.424 60.7307 18.424 61.744C18.424 62.288 18.2907 62.7787 18.024 63.216C17.7573 63.6533 17.3787 63.9947 16.888 64.24C17.4107 64.4427 17.8267 64.768 18.136 65.216C18.4453 65.6533 18.6 66.1653 18.6 66.752C18.6 67.744 18.232 68.5333 17.496 69.12C16.76 69.7067 15.752 70 14.472 70H10.168ZM13.976 60.336H12.2V63.424H13.944C14.7547 63.424 15.3573 63.3013 15.752 63.056C16.1467 62.8 16.344 62.3947 16.344 61.84C16.344 61.328 16.152 60.9493 15.768 60.704C15.3947 60.4587 14.7973 60.336 13.976 60.336ZM12.2 68.304H14.424C15.0747 68.304 15.5867 68.176 15.96 67.92C16.344 67.664 16.536 67.2587 16.536 66.704C16.536 65.6693 15.816 65.152 14.376 65.152H12.2V68.304ZM24.021 70.144C23.1463 70.144 22.389 69.984 21.749 69.664C21.1197 69.3333 20.6343 68.864 20.293 68.256C19.9517 67.648 19.781 66.9227 19.781 66.08C19.781 65.2373 19.957 64.496 20.309 63.856C20.661 63.2053 21.1357 62.6987 21.733 62.336C22.341 61.9733 23.029 61.792 23.797 61.792C25.045 61.792 25.9623 62.2187 26.549 63.072C27.1463 63.9147 27.3543 65.0827 27.173 66.576H21.765C21.8077 67.1413 22.037 67.5947 22.453 67.936C22.869 68.2773 23.4397 68.448 24.165 68.448C24.5063 68.448 24.8477 68.3733 25.189 68.224C25.541 68.0747 25.8397 67.8453 26.085 67.536L27.221 68.688C26.8583 69.1467 26.4157 69.504 25.893 69.76C25.381 70.016 24.757 70.144 24.021 70.144ZM23.829 63.264C23.285 63.264 22.837 63.4347 22.485 63.776C22.133 64.1173 21.909 64.576 21.813 65.152H25.493C25.5143 64.4907 25.3703 64.0107 25.061 63.712C24.7517 63.4133 24.341 63.264 23.829 63.264ZM36.4045 61.952V70H34.4205L34.4845 68.592C34.1965 69.0827 33.8178 69.4667 33.3485 69.744C32.8898 70.0107 32.3618 70.144 31.7645 70.144C31.0605 70.144 30.4632 69.984 29.9725 69.664C29.4818 69.3333 29.1085 68.88 28.8525 68.304C28.5965 67.728 28.4685 67.0667 28.4685 66.32C28.4685 65.424 28.6445 64.64 28.9965 63.968C29.3485 63.2853 29.8285 62.752 30.4365 62.368C31.0552 61.984 31.7485 61.792 32.5165 61.792C33.0285 61.792 33.4818 61.904 33.8765 62.128C34.2712 62.3413 34.5752 62.6293 34.7885 62.992L34.9805 61.952H36.4045ZM32.6605 63.52C31.9992 63.52 31.4712 63.7707 31.0765 64.272C30.6818 64.7733 30.4845 65.4293 30.4845 66.24C30.4845 66.9333 30.6338 67.472 30.9325 67.856C31.2312 68.24 31.6418 68.432 32.1645 68.432C32.5912 68.432 32.9752 68.3093 33.3165 68.064C33.6685 67.8187 33.9458 67.4773 34.1485 67.04C34.3512 66.6027 34.4525 66.1013 34.4525 65.536C34.4525 64.9067 34.2925 64.416 33.9725 64.064C33.6525 63.7013 33.2152 63.52 32.6605 63.52ZM41.9015 70.144C40.9308 70.144 40.1735 69.8773 39.6295 69.344C39.0962 68.8107 38.8348 68.112 38.8455 67.248L38.9095 63.552H37.5335V61.92H38.9415L38.9575 60.256H40.9095L40.8775 61.92H43.5175V63.552H40.8615L40.8135 67.04C40.8028 67.4773 40.9095 67.824 41.1335 68.08C41.3682 68.3253 41.7148 68.448 42.1735 68.448C42.4188 68.448 42.6482 68.416 42.8615 68.352C43.0748 68.288 43.2988 68.1707 43.5335 68L44.1095 69.504C43.8642 69.7173 43.5495 69.8773 43.1655 69.984C42.7815 70.0907 42.3602 70.144 41.9015 70.144Z" fill="#D7965E"/>
</svg>
