<svg width="44" height="44" viewBox="0 0 44 44" fill="none" xmlns="http://www.w3.org/2000/svg">
<path d="M35.1111 4H7.88889C5.74111 4 4 5.74111 4 7.88889V35.1111C4 37.2589 5.74111 39 7.88889 39H35.1111C37.2589 39 39 37.2589 39 35.1111V7.88889C39 5.74111 37.2589 4 35.1111 4Z" stroke="#94623D" stroke-width="3" stroke-linecap="round" stroke-linejoin="round"/>
<g clip-path="url(#clip0_621_29)">
<path d="M12.5 31.625V23.75" stroke="#94623D" stroke-width="3" stroke-linecap="round" stroke-linejoin="round"/>
<path d="M12.5 19.25V11.375" stroke="#94623D" stroke-width="3" stroke-linecap="round" stroke-linejoin="round"/>
<path d="M21.5 31.625V21.5" stroke="#94623D" stroke-width="3" stroke-linecap="round" stroke-linejoin="round"/>
<path d="M21.5 17V11.375" stroke="#94623D" stroke-width="3" stroke-linecap="round" stroke-linejoin="round"/>
<path d="M30.5 31.625V26" stroke="#94623D" stroke-width="3" stroke-linecap="round" stroke-linejoin="round"/>
<path d="M30.5 21.5V11.375" stroke="#94623D" stroke-width="3" stroke-linecap="round" stroke-linejoin="round"/>
<path d="M9.125 23.75H15.875" stroke="#94623D" stroke-width="3" stroke-linecap="round" stroke-linejoin="round"/>
<path d="M18.125 17H24.875" stroke="#94623D" stroke-width="3" stroke-linecap="round" stroke-linejoin="round"/>
<path d="M27.125 26H33.875" stroke="#94623D" stroke-width="3" stroke-linecap="round" stroke-linejoin="round"/>
</g>
<defs>
<clipPath id="clip0_621_29">
<rect width="27" height="27" fill="white" transform="translate(8 8)"/>
</clipPath>
</defs>
</svg>
