<svg width="47" height="47" viewBox="0 0 47 47" fill="none" xmlns="http://www.w3.org/2000/svg">
<path d="M3.91602 5.875H15.666C17.7435 5.875 19.736 6.70029 21.205 8.16933C22.6741 9.63836 23.4993 11.6308 23.4993 13.7083V41.125C23.4993 39.5669 22.8804 38.0725 21.7786 36.9707C20.6768 35.869 19.1825 35.25 17.6243 35.25H3.91602V5.875Z" stroke="#94623D" stroke-width="3" stroke-linecap="round" stroke-linejoin="round"/>
<path d="M43.0833 5.875H31.3333C29.2558 5.875 27.2634 6.70029 25.7943 8.16933C24.3253 9.63836 23.5 11.6308 23.5 13.7083V41.125C23.5 39.5669 24.119 38.0725 25.2207 36.9707C26.3225 35.869 27.8169 35.25 29.375 35.25H43.0833V5.875Z" stroke="#94623D" stroke-width="3" stroke-linecap="round" stroke-linejoin="round"/>
</svg>
