<svg width="34" height="34" viewBox="0 0 34 34" fill="none" xmlns="http://www.w3.org/2000/svg">
<path d="M14.4148 7.46365C14.4148 7.46365 6.93791 5.05692 5.91104 6.08379C4.88417 7.11066 7.38717 14.8443 7.38717 14.8443C5.29436 17.313 1.64313 19.8182 2.02819 21.1659C2.41325 22.5137 10.2111 24.407 10.2111 24.407C10.2111 24.407 11.8155 31.9801 13.035 32.2048C14.2544 32.4294 19.7096 26.6854 19.7096 26.6854C19.7096 26.6854 27.2186 29.06 28.0529 28.3219C28.8873 27.5839 26.6731 19.5294 26.6731 19.5294C26.6731 19.5294 32.4813 14.5234 31.9679 12.9831C31.4544 11.4428 23.9134 10.2234 23.9134 10.2234C23.9134 10.2234 22.1484 2.2651 20.929 2.0084C19.7096 1.7517 14.4148 7.46365 14.4148 7.46365Z" fill="#D7965E" stroke="#D7965E" stroke-width="3"/>
</svg>
