<svg width="37" height="37" viewBox="0 0 37 37" fill="none" xmlns="http://www.w3.org/2000/svg">
<path d="M13.212 3.51111C4.22835 13.1372 14.354 18.1055 12.7172 20.8657C11.0803 23.6259 4.26616 23.2118 2.24874 24.6954C0.231323 26.179 0.764237 28.2837 3.08623 28.9392C4.87413 29.444 11.2121 26.179 11.3467 28.6977C11.426 30.1813 6.85482 30.8154 6.85482 33.045C6.85482 34.218 7.14537 35.1532 8.91041 35.8742C11.7273 37.0248 16.1811 29.9053 18.8458 29.9053C21.5104 29.9053 25.0772 35.2014 27.1062 35.8742C28.6669 36.3917 30.7537 34.9927 30.6844 33.045C30.612 31.0068 26.0784 30.4228 26.4591 28.2837C26.7967 26.386 31.6361 29.1117 33.8059 28.6977C35.9757 28.2837 36.6877 26.6077 35.2524 25.0405C33.8059 23.4609 28.1364 23.8973 25.3172 21.2798C22.1957 18.3816 33.9582 13.7928 24.0229 3.51111C20.6556 0.026378 16.2066 0.302392 13.212 3.51111Z" fill="#D7965E" stroke="#D7965E"/>
</svg>
