<svg width="33" height="32" viewBox="0 0 33 32" fill="none" xmlns="http://www.w3.org/2000/svg">
<path d="M18.4544 16.28L22.0448 19.88C22.3374 20.1733 22.4837 20.5403 22.4837 20.9808C22.4837 21.4213 22.3374 21.8011 22.0448 22.12C21.7257 22.44 21.3464 22.6 20.9071 22.6C20.4677 22.6 20.089 22.44 19.7709 22.12L16.38 18.72C16.0076 18.3467 15.7284 17.9333 15.5422 17.48C15.3561 17.0267 15.263 16.5333 15.263 16V11.2C15.263 10.7467 15.4162 10.3664 15.7225 10.0592C16.0289 9.752 16.4076 9.59893 16.8587 9.6C17.3108 9.6 17.6901 9.7536 17.9965 10.0608C18.3028 10.368 18.4555 10.7477 18.4544 11.2V16.28ZM16.8587 3.2C17.3108 3.2 17.6901 3.3536 17.9965 3.6608C18.3028 3.968 18.4555 4.34773 18.4544 4.8C18.4544 5.25333 18.3012 5.6336 17.9949 5.9408C17.6885 6.248 17.3098 6.40107 16.8587 6.4C16.4066 6.4 16.0273 6.2464 15.7209 5.9392C15.4146 5.632 15.2619 5.25227 15.263 4.8C15.263 4.34667 15.4162 3.9664 15.7225 3.6592C16.0289 3.352 16.4076 3.19893 16.8587 3.2ZM29.6246 16C29.6246 16.4533 29.4714 16.8336 29.165 17.1408C28.8586 17.448 28.4799 17.6011 28.0288 17.6C27.5767 17.6 27.1975 17.4464 26.8911 17.1392C26.5847 16.832 26.432 16.4523 26.4331 16C26.4331 15.5467 26.5863 15.1664 26.8927 14.8592C27.199 14.552 27.5778 14.3989 28.0288 14.4C28.481 14.4 28.8602 14.5536 29.1666 14.8608C29.473 15.168 29.6256 15.5477 29.6246 16ZM16.8587 25.6C17.3108 25.6 17.6901 25.7536 17.9965 26.0608C18.3028 26.368 18.4555 26.7477 18.4544 27.2C18.4544 27.6533 18.3012 28.0336 17.9949 28.3408C17.6885 28.648 17.3098 28.8011 16.8587 28.8C16.4066 28.8 16.0273 28.6464 15.7209 28.3392C15.4146 28.032 15.2619 27.6523 15.263 27.2C15.263 26.7467 15.4162 26.3664 15.7225 26.0592C16.0289 25.752 16.4076 25.5989 16.8587 25.6ZM7.2843 16C7.2843 16.4533 7.13111 16.8336 6.82473 17.1408C6.51835 17.448 6.13963 17.6011 5.68857 17.6C5.23644 17.6 4.85719 17.4464 4.55081 17.1392C4.24443 16.832 4.09177 16.4523 4.09283 16C4.09283 15.5467 4.24602 15.1664 4.5524 14.8592C4.85879 14.552 5.23751 14.3989 5.68857 14.4C6.14069 14.4 6.51994 14.5536 6.82632 14.8608C7.1327 15.168 7.28536 15.5477 7.2843 16ZM16.8587 32C14.6513 32 12.5768 31.5797 10.6353 30.7392C8.69386 29.8987 7.00505 28.7589 5.56889 27.32C4.13273 25.88 2.99603 24.1867 2.15881 22.24C1.32158 20.2933 0.902431 18.2133 0.901367 16C0.901367 13.7867 1.32051 11.7067 2.15881 9.76C2.9971 7.81333 4.13379 6.12 5.56889 4.68C7.00505 3.24 8.69386 2.10027 10.6353 1.2608C12.5768 0.421333 14.6513 0.00106667 16.8587 0C19.0661 0 21.1406 0.420267 23.0821 1.2608C25.0235 2.10133 26.7124 3.24107 28.1485 4.68C29.5847 6.12 30.7219 7.81333 31.5602 9.76C32.3985 11.7067 32.8171 13.7867 32.816 16C32.816 18.2133 32.3969 20.2933 31.5586 22.24C30.7203 24.1867 29.5836 25.88 28.1485 27.32C26.7124 28.76 25.0235 29.9003 23.0821 30.7408C21.1406 31.5813 19.0661 32.0011 16.8587 32ZM16.8587 28.8C20.4225 28.8 23.4411 27.56 25.9145 25.08C28.3879 22.6 29.6246 19.5733 29.6246 16C29.6246 12.4267 28.3879 9.4 25.9145 6.92C23.4411 4.44 20.4225 3.2 16.8587 3.2C13.2949 3.2 10.2763 4.44 7.80291 6.92C5.32953 9.4 4.09283 12.4267 4.09283 16C4.09283 19.5733 5.32953 22.6 7.80291 25.08C10.2763 27.56 13.2949 28.8 16.8587 28.8Z" fill="#94623D"/>
</svg>
