<svg width="53" height="49" viewBox="0 0 53 49" fill="none" xmlns="http://www.w3.org/2000/svg">
<path d="M23.2341 48.0322L1.25186 26.7397C0.9188 26.4171 0.682323 26.0676 0.542436 25.6912C0.40477 25.3148 0.335938 24.9115 0.335938 24.4814C0.335938 24.0512 0.40477 23.648 0.542436 23.2716C0.682323 22.8952 0.9188 22.5457 1.25186 22.2231L23.2341 0.930614C23.8447 0.339156 24.6074 0.0294488 25.5222 0.00148899C26.4393 -0.0243201 27.2309 0.285388 27.897 0.930614C28.5631 1.52207 28.9106 2.26086 28.9395 3.14697C28.9661 4.03523 28.6464 4.80197 27.9802 5.4472L11.6601 21.2553H48.88C49.8237 21.2553 50.6153 21.5639 51.2548 22.1812C51.892 22.8006 52.2107 23.5673 52.2107 24.4814C52.2107 25.3955 51.892 26.1611 51.2548 26.7784C50.6153 27.3978 49.8237 27.7075 48.88 27.7075H11.6601L27.9802 43.5156C28.5909 44.107 28.9106 44.8598 28.9395 45.7739C28.9661 46.6879 28.6464 47.4407 27.9802 48.0322C27.3696 48.6774 26.5925 49 25.6488 49C24.7051 49 23.9002 48.6774 23.2341 48.0322Z" fill="white"/>
</svg>
