<svg width="20" height="23" viewBox="0 0 20 23" fill="none" xmlns="http://www.w3.org/2000/svg">
<path d="M6.03108 2.45203C7.29097 1.57945 8.75296 1.08079 10.2617 1.00902C11.7704 0.937245 13.2696 1.29505 14.5997 2.04442C15.9299 2.79378 17.0415 3.9067 17.8162 5.26491C18.591 6.62312 19.0001 8.17587 19 9.75814C19 13.1677 18.3803 16.4244 17.2524 19.4124M3.66601 4.92866C2.7605 6.36045 2.27892 8.04059 2.28173 9.75814C2.28436 11.4081 1.83989 13.0249 1 14.4207M3.21684 18.5764C5.30888 16.1629 6.46586 13.0183 6.4613 9.75814C6.4613 8.59682 6.90165 7.48307 7.68547 6.66189C8.46929 5.84071 9.53238 5.37938 10.6409 5.37938C11.7494 5.37938 12.8124 5.84071 13.5963 6.66189C14.3801 7.48307 14.8204 8.59682 14.8204 9.75814C14.8204 10.3735 14.797 10.983 14.7491 11.5855M10.6409 9.75814C10.6471 13.9339 9.22342 17.9734 6.62848 21.1429M14.0213 15.7763C13.4178 17.9912 12.483 20.0918 11.2516 22" stroke="#94623D" stroke-width="1.5" stroke-linecap="round" stroke-linejoin="round"/>
</svg>
